HIERARCHY
ROOT Hips
{
  OFFSET 0.474958 101.652 1.55445
  CHANNELS 6 Xposition Yposition Zposition Zrotation Xrotation Yrotation
  JOINT Spine
  {
    OFFSET 0 10.1816 0.1315
    CHANNELS 6 Xposition Yposition Zposition Zrotation Xrotation Yrotation
    JOINT Spine1
    {
      OFFSET 0 10.0835 -1.0008
      CHANNELS 6 Xposition Yposition Zposition Zrotation Xrotation Yrotation
      JOINT Spine2
      {
        OFFSET 0 9.1 -1.3734
        CHANNELS 6 Xposition Yposition Zposition Zrotation Xrotation Yrotation
        JOINT Neck
        {
          OFFSET 0 16.6717 -2.5162
          CHANNELS 6 Xposition Yposition Zposition Zrotation Xrotation Yrotation
          JOINT Head
          {
            OFFSET 0 9.6179 1.685
            CHANNELS 6 Xposition Yposition Zposition Zrotation Xrotation Yrotation
            JOINT HeadTop_End
            {
              OFFSET 0 17.8152 2.585
              CHANNELS 6 Xposition Yposition Zposition Zrotation Xrotation Yrotation
              End Site
              {
                OFFSET 0 0 0
              }
            }
            JOINT LeftEye
            {
              OFFSET 3.0676 6.4095 9.2836
              CHANNELS 6 Xposition Yposition Zposition Zrotation Xrotation Yrotation
              End Site
              {
                OFFSET 0 0 0
              }
            }
            JOINT RightEye
            {
              OFFSET -3.0676 6.4095 9.2835
              CHANNELS 6 Xposition Yposition Zposition Zrotation Xrotation Yrotation
              End Site
              {
                OFFSET 0 0 0
              }
            }
          }
        }
        JOINT LeftShoulder
        {
          OFFSET 4.5704 10.946 -2.628
          CHANNELS 6 Xposition Yposition Zposition Zrotation Xrotation Yrotation
          JOINT LeftArm
          {
            OFFSET 10.5924 -0.5246 -2.2321
            CHANNELS 6 Xposition Yposition Zposition Zrotation Xrotation Yrotation
            JOINT LeftForeArm
            {
              OFFSET 27.8415 -0.0001 0
              CHANNELS 6 Xposition Yposition Zposition Zrotation Xrotation Yrotation
              JOINT LeftHand
              {
                OFFSET 28.3288 0 0
                CHANNELS 6 Xposition Yposition Zposition Zrotation Xrotation Yrotation
                JOINT LeftHandThumb1
                {
                  OFFSET 2.4661 -1.575 2.6824
                  CHANNELS 6 Xposition Yposition Zposition Zrotation Xrotation Yrotation
                  JOINT LeftHandThumb2
                  {
                    OFFSET 3.2298 -1.8647 1.8647
                    CHANNELS 6 Xposition Yposition Zposition Zrotation Xrotation Yrotation
                    JOINT LeftHandThumb3
                    {
                      OFFSET 2.6526 -1.5315 1.5315
                      CHANNELS 6 Xposition Yposition Zposition Zrotation Xrotation Yrotation
                      End Site
                      {
                        OFFSET 1.9546 -1.1285 1.1285
                      }
                    }
                  }
                }
                JOINT LeftHandIndex1
                {
                  OFFSET 9.1093 -0.5171 2.2601
                  CHANNELS 6 Xposition Yposition Zposition Zrotation Xrotation Yrotation
                  JOINT LeftHandIndex2
                  {
                    OFFSET 3.6764 0 0
                    CHANNELS 6 Xposition Yposition Zposition Zrotation Xrotation Yrotation
                    JOINT LeftHandIndex3
                    {
                      OFFSET 2.8831 0 0
                      CHANNELS 6 Xposition Yposition Zposition Zrotation Xrotation Yrotation
                      End Site
                      {
                        OFFSET 2.3927 0 0
                      }
                    }
                  }
                }
                JOINT LeftHandMiddle1
                {
                  OFFSET 9.5334 0 0
                  CHANNELS 6 Xposition Yposition Zposition Zrotation Xrotation Yrotation
                  JOINT LeftHandMiddle2
                  {
                    OFFSET 3.6982 0 0
                    CHANNELS 6 Xposition Yposition Zposition Zrotation Xrotation Yrotation
                    JOINT LeftHandMiddle3
                    {
                      OFFSET 2.9509 0 0
                      CHANNELS 6 Xposition Yposition Zposition Zrotation Xrotation Yrotation
                      End Site
                      {
                        OFFSET 2.8339 0 0
                      }
                    }
                  }
                }
                JOINT LeftHandRing1
                {
                  OFFSET 9.1045 -0.0439 -1.8651
                  CHANNELS 6 Xposition Yposition Zposition Zrotation Xrotation Yrotation
                  JOINT LeftHandRing2
                  {
                    OFFSET 3.154 0 0
                    CHANNELS 6 Xposition Yposition Zposition Zrotation Xrotation Yrotation
                    JOINT LeftHandRing3
                    {
                      OFFSET 2.9377 0 0
                      CHANNELS 6 Xposition Yposition Zposition Zrotation Xrotation Yrotation
                      End Site
                      {
                        OFFSET 2.6475 0 0
                      }
                    }
                  }
                }
                JOINT LeftHandPinky1
                {
                  OFFSET 8.0778 -0.4887 -3.8061
                  CHANNELS 6 Xposition Yposition Zposition Zrotation Xrotation Yrotation
                  JOINT LeftHandPinky2
                  {
                    OFFSET 3.6 0 0
                    CHANNELS 6 Xposition Yposition Zposition Zrotation Xrotation Yrotation
                    JOINT LeftHandPinky3
                    {
                      OFFSET 2.1142 0 0
                      CHANNELS 6 Xposition Yposition Zposition Zrotation Xrotation Yrotation
                      End Site
                      {
                        OFFSET 1.9757 0 0
                      }
                    }
                  }
                }
              }
            }
          }
        }
        JOINT RightShoulder
        {
          OFFSET -4.57 10.9462 -2.628
          CHANNELS 6 Xposition Yposition Zposition Zrotation Xrotation Yrotation
          JOINT RightArm
          {
            OFFSET -10.5928 -0.5248 -2.2321
            CHANNELS 6 Xposition Yposition Zposition Zrotation Xrotation Yrotation
            JOINT RightForeArm
            {
              OFFSET -27.8415 0 0
              CHANNELS 6 Xposition Yposition Zposition Zrotation Xrotation Yrotation
              JOINT RightHand
              {
                OFFSET -28.3288 0 0.0001
                CHANNELS 6 Xposition Yposition Zposition Zrotation Xrotation Yrotation
                JOINT RightHandPinky1
                {
                  OFFSET -8.0767 -0.4885 -3.806
                  CHANNELS 6 Xposition Yposition Zposition Zrotation Xrotation Yrotation
                  JOINT RightHandPinky2
                  {
                    OFFSET -3.6 0 0.0001
                    CHANNELS 6 Xposition Yposition Zposition Zrotation Xrotation Yrotation
                    JOINT RightHandPinky3
                    {
                      OFFSET -2.1142 0 0
                      CHANNELS 6 Xposition Yposition Zposition Zrotation Xrotation Yrotation
                      End Site
                      {
                        OFFSET -1.9757 0 0
                      }
                    }
                  }
                }
                JOINT RightHandRing1
                {
                  OFFSET -9.1036 -0.0439 -1.8651
                  CHANNELS 6 Xposition Yposition Zposition Zrotation Xrotation Yrotation
                  JOINT RightHandRing2
                  {
                    OFFSET -3.154 0 0
                    CHANNELS 6 Xposition Yposition Zposition Zrotation Xrotation Yrotation
                    JOINT RightHandRing3
                    {
                      OFFSET -2.9377 0 0
                      CHANNELS 6 Xposition Yposition Zposition Zrotation Xrotation Yrotation
                      End Site
                      {
                        OFFSET -2.6475 0 0
                      }
                    }
                  }
                }
                JOINT RightHandMiddle1
                {
                  OFFSET -9.5325 0 0
                  CHANNELS 6 Xposition Yposition Zposition Zrotation Xrotation Yrotation
                  JOINT RightHandMiddle2
                  {
                    OFFSET -3.6982 0 0
                    CHANNELS 6 Xposition Yposition Zposition Zrotation Xrotation Yrotation
                    JOINT RightHandMiddle3
                    {
                      OFFSET -2.9509 0 0
                      CHANNELS 6 Xposition Yposition Zposition Zrotation Xrotation Yrotation
                      End Site
                      {
                        OFFSET -2.8339 0 0.0001
                      }
                    }
                  }
                }
                JOINT RightHandIndex1
                {
                  OFFSET -9.1083 -0.5168 2.2601
                  CHANNELS 6 Xposition Yposition Zposition Zrotation Xrotation Yrotation
                  JOINT RightHandIndex2
                  {
                    OFFSET -3.6764 0 0
                    CHANNELS 6 Xposition Yposition Zposition Zrotation Xrotation Yrotation
                    JOINT RightHandIndex3
                    {
                      OFFSET -2.8831 0 0
                      CHANNELS 6 Xposition Yposition Zposition Zrotation Xrotation Yrotation
                      End Site
                      {
                        OFFSET -2.3927 0 0
                      }
                    }
                  }
                }
                JOINT RightHandThumb1
                {
                  OFFSET -2.4648 -1.5727 2.6826
                  CHANNELS 6 Xposition Yposition Zposition Zrotation Xrotation Yrotation
                  JOINT RightHandThumb2
                  {
                    OFFSET -3.2298 -1.8647 1.8647
                    CHANNELS 6 Xposition Yposition Zposition Zrotation Xrotation Yrotation
                    JOINT RightHandThumb3
                    {
                      OFFSET -2.6526 -1.5314 1.5314
                      CHANNELS 6 Xposition Yposition Zposition Zrotation Xrotation Yrotation
                      End Site
                      {
                        OFFSET -1.9546 -1.1285 1.1285
                      }
                    }
                  }
                }
              }
            }
          }
        }
      }
    }
  }
  JOINT LeftUpLeg
  {
    OFFSET 8.2078 -6.7517 -1.5996
    CHANNELS 6 Xposition Yposition Zposition Zrotation Xrotation Yrotation
    JOINT LeftLeg
    {
      OFFSET 0 -44.3705 0.2846
      CHANNELS 6 Xposition Yposition Zposition Zrotation Xrotation Yrotation
      JOINT LeftFoot
      {
        OFFSET 0 -44.4279 -2.9822
        CHANNELS 6 Xposition Yposition Zposition Zrotation Xrotation Yrotation
        JOINT LeftToeBase
        {
          OFFSET 0 -8.7287 10.7106
          CHANNELS 6 Xposition Yposition Zposition Zrotation Xrotation Yrotation
          End Site
          {
            OFFSET 0 -0.0007 9.2781
          }
        }
      }
    }
  }
  JOINT RightUpLeg
  {
    OFFSET -8.2078 -6.7517 -1.5996
    CHANNELS 6 Xposition Yposition Zposition Zrotation Xrotation Yrotation
    JOINT RightLeg
    {
      OFFSET 0 -44.3705 0.2862
      CHANNELS 6 Xposition Yposition Zposition Zrotation Xrotation Yrotation
      JOINT RightFoot
      {
        OFFSET 0 -44.4277 -2.9838
        CHANNELS 6 Xposition Yposition Zposition Zrotation Xrotation Yrotation
        JOINT RightToeBase
        {
          OFFSET 0 -8.7287 10.7106
          CHANNELS 6 Xposition Yposition Zposition Zrotation Xrotation Yrotation
          End Site
          {
            OFFSET 0 -0.0007 9.2781
          }
        }
      }
    }
  }
}
MOTION
Frames:	4
Frame Time:	0.0333333
6.87996 102.159 3.64567 -7.9184 -3.69179 -13.0416 1.77636e-015 10.1816 0.1315 2.29691 0.13104 -0.450651 -1.11022e-015 10.0835 -1.0008 5.57901 0.705709 0.407224 -1.77636e-015 9.1 -1.3734 5.47935 0.747087 0.918151 0 16.6717 -2.5162 -1.96218 7.06622 -2.33169 -3.55271e-015 9.6179 1.685 3.77308 25.1998 -13.3999 0 17.8152 2.585 -0 0 3.18055e-015 3.0676 6.4095 9.2836 -0 0 3.18055e-015 -3.0676 6.4095 9.2835 -0 0 3.18055e-015 4.5704 10.946 -2.628 -11.0231 2.74131 -11.438 10.5924 -0.5246 -2.2321 -84.1866 29.5036 42.4909 27.8415 -0.0001 0 -0.000216034 1.02301e-005 -83.5848 28.3288 -3.55271e-015 -2.13163e-014 32.3346 -15.4462 -37.1363 2.4661 -1.575 2.6824 27.4517 -31.9813 10.2594 3.2298 -1.8647 1.8647 -0.0445642 0.357834 31.9344 2.6526 -1.5315 1.5315 0.462765 3.47349 14.519 9.1093 -0.5171 2.2601 -17.3717 2.91332 -5.83819 3.6764 0 0 -16.8625 -0.460163 2.43486 2.8831 0 -1.42109e-014 -10.1692 -0.109702 0.805552 9.5334 0 -1.42109e-014 -11.1618 -0.93181 4.77098 3.6982 -7.10543e-015 -1.42109e-014 -25.3932 -0.921325 3.19506 2.9509 0 -1.42109e-014 -12.3461 -0.150936 1.4939 9.1045 -0.0439 -1.8651 -10.4964 -0.902307 8.55672 3.154 7.10543e-015 1.42109e-014 -17.9544 -0.207045 2.10426 2.9377 0 0 -8.64565 0.0621955 0.851541 8.0778 -0.4887 -3.8061 -6.76476 -0.759199 17.6623 3.6 -7.10543e-015 0 -13.4261 -0.229445 1.14351 2.1142 0 0 -4.50848 -0.0641914 1.30708 -4.57 10.9462 -2.628 15.2137 1.66978 4.05793 -10.5928 -0.5248 -2.2321 63.553 38.3693 -47.2293 -27.8415 -1.77636e-015 0 0.000991783 1.84201e-005 90.2385 -28.3288 0 0.0001 -28.7022 -21.4398 33.1252 -8.0767 -0.4885 -3.806 -8.02522 -0.105353 -21.785 -3.6 3.55271e-015 0.0001 22.5129 -0.556039 -1.99008 -2.1142 0 -1.42109e-014 6.37392 -0.248424 1.54398 -9.1036 -0.0439 -1.8651 11.8215 -1.15584 -10.8706 -3.154 0 1.42109e-014 29.0188 -0.605076 -3.12598 -2.9377 0 0 17.8179 -0.13835 0.0898189 -9.5325 0 0 19.4212 -1.94832 -6.8943 -3.6982 0 1.42109e-014 26.5653 -0.989901 -3.29201 -2.9509 0 0 16.2114 -0.262744 -1.70866 -9.1083 -0.5168 2.2601 36.1159 8.05738 -2.1085 -3.6764 0 -1.42109e-014 9.66554 -0.196816 -1.75066 -2.8831 0 -1.42109e-014 13.8441 -0.238501 -0.157475 -2.4648 -1.5727 2.6826 -22.7486 -9.73181 -3.38907 -3.2298 -1.8647 1.8647 2.86594 -2.36935 -26.8968 -2.6526 -1.5314 1.5314 0.44022 2.88557 -12.5198 8.2078 -6.7517 -1.5996 15.208 -8.75173 16.938 0 -44.3705 0.2846 1.31645 25.9011 9.4953 3.55271e-015 -44.4279 -2.9822 -6.75374 -8.94066 14.2043 0 -8.7287 10.7106 3.23194e-006 -2.07733 6.14649e-006 -8.2078 -6.7517 -1.5996 10.3562 5.38423 -4.76083 8.88178e-016 -44.3705 0.2862 3.05865 9.91482 9.54047 1.77636e-015 -44.4277 -2.9838 -10.2829 -7.63713 -19.133 4.44089e-016 -8.7287 10.7106 4.17144e-006 -2.28747 1.08791e-005 
6.27744 101.857 3.48082 -8.7351 -3.59036 -14.0299 -8.88178e-016 10.1816 0.1315 2.79302 0.197849 -0.674195 -2.22045e-016 10.0835 -1.0008 5.66807 0.741196 0.360653 -1.77636e-015 9.1 -1.3734 5.56904 0.782065 0.872242 -3.55271e-015 16.6717 -2.5162 -2.05891 6.92231 -2.1761 -3.55271e-015 9.6179 1.685 2.87342 25.0974 -12.3471 0 17.8152 2.585 1.59028e-015 -6.36111e-015 6.36111e-015 3.0676 6.4095 9.2836 1.59028e-015 -6.36111e-015 6.36111e-015 -3.0676 6.4095 9.2835 1.59028e-015 -6.36111e-015 6.36111e-015 4.5704 10.946 -2.628 -11.0231 2.74131 -11.438 10.5924 -0.5246 -2.2321 -84.1866 29.5036 42.4909 27.8415 -0.0001 0 -0.00022379 -4.8374e-006 -83.6623 28.3288 0 0 30.8127 -14.8952 -36.9059 2.4661 -1.575 2.6824 27.4517 -31.9813 10.2594 3.2298 -1.8647 1.8647 -0.0445852 0.357804 31.9344 2.6526 -1.5315 1.5315 0.462781 3.4735 14.519 9.1093 -0.5171 2.2601 -17.5182 2.92703 -5.81277 3.6764 -7.10543e-015 0 -16.8625 -0.460171 2.43486 2.8831 0 1.42109e-014 -10.1692 -0.109738 0.805557 9.5334 7.10543e-015 1.42109e-014 -11.3851 -0.957522 4.79164 3.6982 7.10543e-015 1.42109e-014 -25.3933 -0.921333 3.19507 2.9509 0 0 -12.3461 -0.150939 1.4939 9.1045 -0.0439 -1.8651 -10.7198 -0.927864 8.57741 3.154 0 -1.42109e-014 -17.9546 -0.207057 2.1043 2.9377 0 0 -8.64566 0.0622062 0.851542 8.0778 -0.4887 -3.8061 -6.75873 -0.756892 17.6612 3.6 0 1.42109e-014 -13.4261 -0.229462 1.14351 2.1142 7.10543e-015 0 -4.50849 -0.0642038 1.30708 -4.57 10.9462 -2.628 15.2137 1.66978 4.05793 -10.5928 -0.5248 -2.2321 63.5258 38.3702 -47.2285 -27.8415 0 1.42109e-014 0.000579834 -6.54177e-008 90.2454 -28.3288 3.55271e-015 0.0001 -28.6678 -21.502 33.1336 -8.0767 -0.4885 -3.806 -8.02523 -0.105374 -21.785 -3.6 0 0.0001 22.5129 -0.556018 -1.99008 -2.1142 -1.77636e-015 0 6.37392 -0.248441 1.54399 -9.1036 -0.0439 -1.8651 11.8215 -1.15584 -10.8706 -3.154 0 0 29.0188 -0.605068 -3.12599 -2.9377 0 0 17.818 -0.138366 0.0898184 -9.5325 0 0 19.4212 -1.94833 -6.8943 -3.6982 3.55271e-015 0 26.5653 -0.989927 -3.29201 -2.9509 0 0 16.2114 -0.262746 -1.70866 -9.1083 -0.5168 2.2601 36.1159 8.05736 -2.10851 -3.6764 7.10543e-015 0 9.66556 -0.196815 -1.75065 -2.8831 3.55271e-015 -1.42109e-014 13.8441 -0.238498 -0.157476 -2.4648 -1.5727 2.6826 -22.7486 -9.73182 -3.38908 -3.2298 -1.8647 1.8647 2.86595 -2.36932 -26.8968 -2.6526 -1.5314 1.5314 0.440217 2.88557 -12.5198 8.2078 -6.7517 -1.5996 16.8617 -9.12288 17.868 0 -44.3705 0.2846 1.44695 27.5337 9.41437 0 -44.4279 -2.9822 -7.43654 -9.55993 13.9834 -1.77636e-015 -8.7287 10.7106 6.95425e-007 -1.99688 4.66351e-006 -8.2078 -6.7517 -1.5996 11.05 4.87095 -4.77557 8.88178e-016 -44.3705 0.2862 3.71903 11.3754 9.36677 -1.77636e-015 -44.4277 -2.9838 -11.0791 -8.22832 -18.3166 1.33227e-015 -8.7287 10.7106 1.1653e-006 -2.54142 1.07474e-005 
5.80273 101.708 3.3589 -9.19529 -3.59944 -14.9344 -8.88178e-016 10.1816 0.1315 3.02227 0.281262 -0.808204 -4.44089e-016 10.0835 -1.0008 5.72207 0.767766 0.331978 1.77636e-015 9.1 -1.3734 5.62342 0.808342 0.843936 -3.55271e-015 16.6717 -2.5162 -2.15346 6.85124 -2.04167 0 9.6179 1.685 2.22341 25.1082 -11.5342 8.88178e-016 17.8152 2.585 1.59028e-015 -3.18055e-015 -0 3.0676 6.4095 9.2836 1.59028e-015 -3.18055e-015 -0 -3.0676 6.4095 9.2835 1.59028e-015 -3.18055e-015 -0 4.5704 10.946 -2.628 -11.0231 2.74131 -11.438 10.5924 -0.5246 -2.2321 -84.1866 29.5036 42.4909 27.8415 -0.0001 1.42109e-014 -0.000233816 3.61255e-006 -83.7289 28.3288 -3.55271e-015 1.42109e-014 28.8294 -14.0411 -36.7847 2.4661 -1.575 2.6824 27.4517 -31.9813 10.2594 3.2298 -1.8647 1.8647 -0.0445763 0.357822 31.9344 2.6526 -1.5315 1.5315 0.462775 3.47348 14.519 9.1093 -0.5171 2.2601 -17.6681 2.94099 -5.78683 3.6764 -7.10543e-015 -1.42109e-014 -16.8624 -0.460153 2.43485 2.8831 0 0 -10.1692 -0.109732 0.805553 9.5334 -7.10543e-015 0 -11.6132 -0.983865 4.81262 3.6982 7.10543e-015 0 -25.3934 -0.921348 3.19507 2.9509 0 0 -12.3461 -0.150942 1.4939 9.1045 -0.0439 -1.8651 -10.948 -0.954034 8.5984 3.154 0 -1.42109e-014 -17.9549 -0.207053 2.10431 2.9377 0 -1.42109e-014 -8.64566 0.0621879 0.851551 8.0778 -0.4887 -3.8061 -6.75391 -0.754937 17.6603 3.6 7.10543e-015 1.42109e-014 -13.4261 -0.229453 1.14351 2.1142 3.55271e-015 1.42109e-014 -4.50848 -0.0642038 1.30707 -4.57 10.9462 -2.628 15.2137 1.66978 4.05793 -10.5928 -0.5248 -2.2321 63.5114 38.3706 -47.2281 -27.8415 -1.77636e-015 0 0.00117496 -1.27014e-005 90.2497 -28.3288 -1.77636e-015 0.0001 -28.6496 -21.5348 33.138 -8.0767 -0.4885 -3.806 -8.02522 -0.105351 -21.785 -3.6 -3.55271e-015 0.0001 22.5129 -0.556043 -1.99009 -2.1142 0 1.42109e-014 6.3739 -0.248416 1.54398 -9.1036 -0.0439 -1.8651 11.8215 -1.15584 -10.8706 -3.154 0 0 29.0188 -0.605076 -3.12598 -2.9377 -1.77636e-015 -1.42109e-014 17.8179 -0.138357 0.089818 -9.5325 0 1.42109e-014 19.4212 -1.94832 -6.89429 -3.6982 0 -1.42109e-014 26.5653 -0.989933 -3.29201 -2.9509 1.77636e-015 0 16.2114 -0.262722 -1.70867 -9.1083 -0.5168 2.2601 36.1159 8.05737 -2.10851 -3.6764 0 -1.42109e-014 9.66554 -0.196803 -1.75065 -2.8831 -3.55271e-015 0 13.8441 -0.238505 -0.157476 -2.4648 -1.5727 2.6826 -22.7486 -9.7318 -3.38908 -3.2298 -1.8647 1.8647 2.86595 -2.36933 -26.8968 -2.6526 -1.5314 1.5314 0.440223 2.88556 -12.5198 8.2078 -6.7517 -1.5996 17.7517 -9.03503 18.3213 3.55271e-015 -44.3705 0.2846 1.59403 28.2261 9.33828 3.55271e-015 -44.4279 -2.9822 -7.94199 -9.81431 14.2144 3.55271e-015 -8.7287 10.7106 2.03636e-006 -1.78609 -9.75682e-006 -8.2078 -6.7517 -1.5996 11.3956 4.88989 -4.84008 0 -44.3705 0.2862 4.18168 11.8733 9.264 0 -44.4277 -2.9838 -11.5969 -8.44275 -17.4594 4.44089e-016 -8.7287 10.7106 -4.08156e-006 -2.76206 -1.59291e-006 
5.43224 101.739 3.30616 -9.21869 -3.70763 -15.7804 -1.77636e-015 10.1816 0.1315 2.94818 0.310556 -0.770497 2.22045e-016 10.0835 -1.0008 5.72106 0.76399 0.340794 0 9.1 -1.3734 5.62228 0.804688 0.852867 -3.55271e-015 16.6717 -2.5162 -2.25357 6.92317 -1.91137 0 9.6179 1.685 1.94228 25.3626 -10.9766 8.88178e-016 17.8152 2.585 -1.76556e-031 3.18055e-015 3.18055e-015 3.0676 6.4095 9.2836 -1.76556e-031 3.18055e-015 3.18055e-015 -3.0676 6.4095 9.2835 -1.76556e-031 3.18055e-015 3.18055e-015 4.5704 10.946 -2.628 -11.0231 2.74131 -11.438 10.5924 -0.5246 -2.2321 -84.1866 29.5036 42.4909 27.8415 -0.0001 0 -0.000242996 7.47861e-006 -83.7867 28.3288 0 0 26.7519 -13.0909 -36.6882 2.4661 -1.575 2.6824 27.4516 -31.9813 10.2594 3.2298 -1.8647 1.8647 -0.0445739 0.35783 31.9344 2.6526 -1.5315 1.5315 0.462766 3.47348 14.519 9.1093 -0.5171 2.2601 -17.8209 2.95522 -5.7604 3.6764 0 -1.42109e-014 -16.8625 -0.460181 2.43487 2.8831 0 0 -10.1692 -0.109727 0.805556 9.5334 0 -1.42109e-014 -11.8461 -1.01084 4.83389 3.6982 -7.10543e-015 0 -25.3935 -0.921354 3.19507 2.9509 -3.55271e-015 -1.42109e-014 -12.3461 -0.150933 1.49392 9.1045 -0.0439 -1.8651 -11.1809 -0.980822 8.61964 3.154 0 0 -17.9551 -0.207054 2.10434 2.9377 0 0 -8.64568 0.0621712 0.851545 8.0778 -0.4887 -3.8061 -6.75041 -0.753383 17.6595 3.6 0 -1.42109e-014 -13.4261 -0.229458 1.1435 2.1142 -7.10543e-015 1.42109e-014 -4.50848 -0.0641916 1.30707 -4.57 10.9462 -2.628 15.2137 1.66978 4.05793 -10.5928 -0.5248 -2.2321 63.5095 38.3706 -47.228 -27.8415 3.55271e-015 0 0.000244163 -1.17093e-005 90.2498 -28.3288 3.55271e-015 0.0001 -28.6472 -21.5391 33.1386 -8.0767 -0.4885 -3.806 -8.02523 -0.10535 -21.785 -3.6 -3.55271e-015 0.0001 22.5129 -0.556027 -1.99008 -2.1142 0 0 6.37393 -0.248435 1.54398 -9.1036 -0.0439 -1.8651 11.8215 -1.15583 -10.8706 -3.154 0 -1.42109e-014 29.0188 -0.605064 -3.12598 -2.9377 0 0 17.8179 -0.138369 0.0898094 -9.5325 -3.55271e-015 -1.42109e-014 19.4212 -1.94833 -6.8943 -3.6982 -3.55271e-015 -1.42109e-014 26.5653 -0.989908 -3.292 -2.9509 -1.77636e-015 1.42109e-014 16.2114 -0.262754 -1.70867 -9.1083 -0.5168 2.2601 36.1159 8.05737 -2.10852 -3.6764 7.10543e-015 2.84217e-014 9.66554 -0.196812 -1.75065 -2.8831 -3.55271e-015 0 13.8441 -0.238497 -0.157472 -2.4648 -1.5727 2.6826 -22.7486 -9.73181 -3.38907 -3.2298 -1.8647 1.8647 2.86593 -2.36932 -26.8968 -2.6526 -1.5314 1.5314 0.440229 2.88556 -12.5198 8.2078 -6.7517 -1.5996 17.7356 -8.49368 18.1787 0 -44.3705 0.2846 1.74937 27.8863 9.28229 0 -44.4279 -2.9822 -8.27258 -9.69501 15.067 0 -8.7287 10.7106 -1.33711e-006 -1.5459 7.19613e-006 -8.2078 -6.7517 -1.5996 11.3794 5.38814 -4.87897 0 -44.3705 0.2862 4.32863 11.4213 9.27318 1.77636e-015 -44.4277 -2.9838 -11.7872 -8.28971 -16.6072 0 -8.7287 10.7106 2.00068e-007 -2.87943 -1.12498e-006 
